# xmcd CD database file
#
# Track frame offsets:
#	187
#	17125
#	36322
#	55317
#	71037
#	87165
#	108820
#	125465
#	143117
#	161887
#
# Disc length: 2407 seconds
#
# Revision: 0
# Processed by: cddbd v1.5.1PL0 Copyright (c) Steve Scherf et al.
# Submitted via: CDex 1.51
#
DISCID=8909650a
DTITLE=ニュー・ヴォーグ - SENSUAL WORLD
DYEAR=1995
DGENRE=JPop
TTITLE0=Children Coup detat
TTITLE1=Dance Romanesque
TTITLE2=REAL NONFICTION
TTITLE3=KISS IN THE MOONLIGHT
TTITLE4=ESCAPE
TTITLE5=M.A.D -MASTER ASIC DECADENCE-
TTITLE6=CYBER DEAD CLUB
TTITLE7=I MISS YOU
TTITLE8=SENSUAL WORLD
TTITLE9=Secret Promise
EXTD=YEAR: 1995
EXTT0=
EXTT1=
EXTT2=
EXTT3=
EXTT4=
EXTT5=
EXTT6=
EXTT7=
EXTT8=
EXTT9=
PLAYORDER=
